PathFileType	4	(X/Y/Z)	C:/Users/beibeiliu/ov580/test_trc/User2\sequence.23_training_dense_left.trc
DataRate	CameraRate	NumFrames	NumMarkers	Units	OrigDataRate	OrigDataStartFrame	OrigNumFrames
120	120	19	19	mm	120	193	257
Frame#	Time	ThumbCMC			ThumbMCP			ThumbIP			ThumbTip			IndexMCP			IndexPIP			IndexTip			MiddleMCP			MiddlePIP			MiddleTip			RingMCP			RingPIP			RingTip			PinkyMCP			PinkyPIP			PinkyTip			BackHand1			BackHand2			BackHand3	
		X0	Y0	Z0	X1	Y1	Z1	X2	Y2	Z2	X3	Y3	Z3	X4	Y4	Z4	X5	Y5	Z5	X6	Y6	Z6	X7	Y7	Z7	X8	Y8	Z8	X9	Y9	Z9	X10	Y10	Z10	X11	Y11	Z11	X12	Y12	Z12	X13	Y13	Z13	X14	Y14	Z14	X15	Y15	Z15	X16	Y16	Z16	X17	Y17	Z17	X18	Y18	Z18	
192	1.6	-159.363	2.9024	74.2252	-125.751	-15.2942	62.1278	-107.367	-44.1461	52.4338	-90.4583	-65.4504	46.4889	-149.503	-44.5932	6.29688	-131.154	-56.5493	-5.36611	-105.221	-66.1375	-22.2727	-153.45	-73.5114	21.1871	-126.264	-92.1375	11.9912	-98.8634	-107.509	3.71671	-136.866	-83.0483	49.449	-111.947	-71.5861	67.0963	-130.028	-42.4791	83.3817	-142.539	-87.3363	74.4832	-123.692	-64.6343	90.9068	-146.911	-40.1481	99.3784	-196.545	-60.0844	71.5126	-212.478	-38.3998	95.6952	-198.396	-20.105	66.2008	
193	1.60833	-166.77	5.42602	72.521	-131.806	-11.6802	63.3296	-107.924	-39.4394	51.8216	-89.9662	-55.4396	47.0907	-149.767	-45.8613	5.73809	-128.926	-53.6392	-7.45168	-105.305	-67.6424	-19.8902	-147.121	-75.5298	20.459	-122.635	-90.1638	13.6958	-92.6986	-103.932	7.56046	-131.654	-80.1356	52.3715	-111.006	-62.4997	68.0628	-130.768	-39.5216	83.8377	-140.239	-80.9443	73.1322	-122.42	-56.3377	91.0558	-151.699	-34.5812	97.0261	-192.976	-65.457	70.848	-214.888	-47.087	96.2932	-201.115	-22.7654	63.4004	
194	1.61667	-171.256	0.577479	68.7222	-134.868	-7.76787	58.7786	-110.204	-30.3781	53.0584	-93.4823	-51.5419	48.1736	-150.64	-48.2616	7.69874	-126.183	-55.076	-8.66971	-106.007	-61.7687	-19.622	-146.071	-74.6017	21.9767	-116.022	-88.6736	13.5265	-88.7626	-99.3918	9.90506	-131.638	-76.3288	53.4173	-109.318	-58.0194	68.1216	-137.567	-32.4938	81.0905	-134.993	-77.9495	76.1623	-123.638	-46.7455	88.4908	-152.166	-31.4256	92.2672	-192.266	-66.6498	73.8441	-211.731	-48.1563	96.9299	-204.879	-28.2142	65.2427	
195	1.625	-177	2.54608	68.6295	-140.459	-4.56539	58.6357	-111.247	-27.5208	48.8957	-91.7291	-40.8169	48.3847	-153.1	-47.4599	7.84431	-126.174	-55.5351	-8.65461	-103.293	-60.9414	-19.6053	-143.168	-76.1609	22.8614	-116.658	-86.5679	17.0618	-81.555	-93.2579	7.91387	-128.455	-74.5168	55.4974	-107.523	-53.4037	67.9274	-133.96	-30.3529	80.1015	-129.833	-72.5155	76.3027	-120.653	-44.2322	84.9328	-153.068	-30.4872	87.1665	-190.181	-68.6143	72.5086	-210.125	-52.009	93.4712	-204.395	-34.5523	60.3893	
196	1.63333	-180.818	-1.83601	66.4449	-144.564	-2.84669	57.0356	-112.357	-20.7222	48.748	-89.6432	-38.6738	43.8906	-152.67	-47.9547	5.73029	-129.187	-53.8165	-6.34151	-102.334	-60.6151	-19.6314	-143.043	-75.1153	24.7944	-109.185	-84.581	16.7518	-77.7616	-87.5813	5.8117	-124.988	-72.73	52.7329	-107.888	-45.869	62.027	-135.298	-27.1126	74.3329	-128.733	-70.7838	75.2478	-120.738	-39.8296	83.6068	-152.964	-30.5615	87.0986	-187.681	-71.6712	74.2533	-211.667	-57.018	95.4528	-207.525	-34.0745	60.723	
197	1.64167	-183.664	-0.353303	61.4648	-147.015	-1.98007	55.4185	-114.735	-22.185	47.3787	-91.3016	-33.0202	43.7729	-150.951	-48.7963	3.29142	-125.66	-53.8513	-9.85167	-103.426	-56.3282	-21.4617	-140.039	-75.8332	25.8399	-110.748	-78.5262	14.2585	-75.4561	-83.5036	6.68264	-125.018	-72.1678	50.4006	-106.242	-48.0686	58.7355	-131.224	-27.7282	75.0832	-126.994	-69.252	74.9471	-121.928	-37.8853	83.1509	-151.926	-27.7264	85.0449	-186.279	-71.4893	71.8351	-210.985	-56.3608	96.7932	-205.509	-40.3338	59.2333	
198	1.65	-186.922	0.896798	62.0834	-149.14	-4.30512	54.1914	-117.122	-17.5181	46.8553	-93.9705	-33.0768	42.8806	-153.426	-49.561	6.06972	-129.051	-50.8755	-11.8336	-103.374	-57.7387	-22.0353	-135.881	-76.5137	24.4816	-105.111	-80.58	16.5577	-74.7371	-81.1016	8.06304	-125.798	-74.7215	52.363	-104.114	-49.8598	61.9987	-125.794	-25.2303	72.4096	-128.29	-70.4921	77.3032	-121.921	-37.1602	85.007	-152.914	-27.5662	87.1265	-184.727	-74.9816	71.4882	-210.198	-58.4264	93.854	-209.016	-40.9747	60.2999	
199	1.65833	-187.035	-6.73156	61.5634	-150.958	-7.42445	50.5442	-116.54	-22.1227	42.6053	-96.9209	-31.5224	42.443	-151.336	-54.4492	4.42513	-129.374	-54.3245	-10.269	-104.615	-56.7447	-25.2207	-137.418	-75.8259	21.982	-108.598	-78.8493	16.7894	-77.122	-81.6272	10.9442	-125.826	-73.5525	49.4839	-104.685	-50.7479	57.4533	-125.063	-24.5062	74.3076	-123.584	-66.4425	78.064	-123.584	-36.6969	83.1169	-154.662	-28.3353	89.1521	-185.058	-73.0905	69.7505	-210.771	-61.7496	94.2618	-208.72	-43.1648	54.4052	
200	1.66667	-188.549	-7.92039	58.5718	-152.125	-7.6757	47.9841	-117.699	-20.0326	40.4824	-98.0452	-33.4797	40.9088	-151.325	-56.9433	3.09873	-132.151	-54.9484	-11.8714	-106.204	-56.683	-27.7261	-139.795	-78.3526	26.9017	-106.079	-78.7837	12.2036	-75.6906	-81.2544	11.1867	-128.223	-73.2175	47.9958	-103.64	-52.1989	56.4368	-124.066	-22.8536	71.1256	-127.317	-67.5317	75.7239	-125.148	-35.2312	83.2524	-158.271	-26.743	89.1422	-185.98	-75.4369	74.8335	-210.298	-64.2057	96.6199	-210.519	-47.6304	61.306	
201	1.675	-189.368	-7.91972	57.0126	-152.903	-2.063	46.4484	-121.224	-16.8362	40.2421	-98.2663	-29.2283	39.9416	-153.276	-57.3191	5.68979	-128.618	-57.863	-13.4271	-107.76	-57.8457	-25.9556	-138.831	-77.5061	22.8217	-104.772	-78.9869	13.4416	-76.1253	-81.4653	8.60085	-122.282	-74.4493	50.7354	-103.446	-47.9859	59.7073	-125.623	-21.8109	74.7484	-124.24	-66.5787	77.0001	-125.867	-31.5772	85.3597	-156.556	-27.6167	88.7333	-182.832	-78.204	72.3453	-211.344	-62.8473	95.4482	-211.333	-48.4199	60.3251	
202	1.68333	-192.956	-6.13411	59.6384	-155.181	-8.88577	47.23	-122.243	-19.0107	40.0615	-97.4742	-27.6264	38.0801	-156.739	-54.7375	4.86451	-132.096	-55.7892	-15.3715	-107.982	-58.4672	-25.8592	-140.138	-76.1996	23.354	-105.851	-78.192	10.7693	-76.9693	-81.5374	9.62269	-124.294	-70.0325	46.9507	-104.232	-47.2246	53.6057	-123.878	-20.9985	70.5186	-122.882	-62.4023	75.2732	-122.807	-33.0051	82.7748	-155.46	-24.5101	88.5117	-182.008	-75.7852	71.384	-210.209	-64.8264	93.3666	-206.783	-49.8259	58.3731	
203	1.69167	-191.898	-7.04365	56.8231	-153.283	-4.93089	44.4512	-120.039	-16.5583	37.3463	-100.514	-28.3542	38.5106	-155.606	-55.967	5.4021	-136.058	-54.0406	-14.1676	-109.11	-57.1697	-27.3331	-139.614	-74.988	24.4421	-107.784	-76.1665	10.9096	-77.8115	-76.3666	3.59694	-122.875	-69.2899	50.6012	-104.955	-39.8871	55.5435	-126.582	-17.471	74.2132	-125.124	-63.6131	75.2101	-123.768	-29.0146	81.5788	-152.549	-22.9848	86.0954	-179.455	-76.7747	74.2457	-207.532	-66.7154	98.9025	-207.769	-47.232	57.6197	
204	1.7	-192.75	-7.97257	59.6577	-156.049	-2.70284	44.45	-125.187	-12.4096	39.5796	-98.7907	-25.7312	35.5105	-155.067	-51.0906	0.381749	-132.313	-54.5087	-14.0325	-108.05	-53.8375	-30.7155	-137.629	-74.1914	25.0994	-109.297	-74.9218	12.5832	-76.7031	-75.3601	5.89939	-123.142	-64.6031	46.7465	-104.367	-36.672	54.3047	-123.157	-15.883	71.0027	-123.157	-60.5322	74.209	-121.673	-26.6384	81.2568	-151.745	-18.7842	89.8951	-181	-72.4279	72.7134	-206.42	-62.4128	95.6602	-208.591	-47.6982	60.4166	
205	1.70833	-193.565	-2.97447	56.8824	-159.045	2.66801	45.3987	-124.107	-11.8797	35.6521	-100.464	-17.9286	31.4021	-158.263	-48.8102	3.97581	-136.336	-47.3609	-18.4895	-112.481	-49.9277	-32.3292	-138.627	-68.858	20.5258	-107.537	-70.8915	10.7715	-75.3923	-69.0536	0.356765	-118.003	-61.4454	46.1591	-102.132	-32.8912	52.8099	-123.025	-10.0315	65.2556	-119.233	-52.8205	69.1781	-120.246	-22.2336	78.8731	-149.023	-12.9402	84.137	-179.847	-71.4203	72.1963	-201.961	-63.1475	99.9357	-206.803	-46.8916	62.4169	
206	1.71667	-193.651	-2.36484	57.8318	-160.151	4.31601	44.0919	-127.291	-6.72509	34.0314	-100.637	-15.2456	25.9483	-158.213	-47.4942	2.80877	-137.883	-44.5885	-21.7177	-116.862	-44.8182	-37.9022	-137.577	-63.8747	17.3113	-106.898	-65.1872	7.27285	-79.1882	-61.0588	-5.97772	-120.585	-57.2143	43.8737	-103.154	-27.8579	46.3075	-125.502	-5.81857	66.9876	-121.011	-51.2113	68.6365	-120.27	-17.0301	74.1447	-152.717	-9.3776	82.03	-177.929	-67.9476	71.0795	-201.195	-60.6873	100.98	-205.464	-43.2078	59.5155	
207	1.725	-197.288	-0.257403	59.7582	-163.482	8.61953	41.9394	-130.206	-1.43173	27.2681	-106.278	-6.85864	20.8211	-162.372	-43.2935	-1.91509	-145.688	-40.5574	-23.1109	-124.582	-40.716	-40.5864	-138.65	-60.6696	15.2141	-111.43	-59.681	1.10225	-81.1409	-56.3019	-12.5638	-122.797	-48.8578	35.9586	-104.34	-24.0911	43.7199	-126.583	-1.32878	59.7476	-116.944	-44.3147	66.0441	-119.154	-11.1353	72.6782	-151.395	-7.8262	84.2072	-176.523	-63.9644	71.6382	-198.13	-59.4316	97.7198	-207.281	-41.4648	64.3658	
208	1.73333	-200.583	2.37536	60.7969	-168.159	7.81226	40.223	-134.957	3.36514	22.443	-109.208	-5.17084	15.3454	-166.438	-42.8299	-2.17669	-153.184	-39.0599	-28.0926	-133.256	-39.5842	-45.3901	-143.712	-58.633	14.0097	-115.871	-54.7059	-5.16768	-83.9658	-51.0439	-20.1201	-123.146	-47.4552	35.6744	-111.728	-14.2602	36.3854	-133.836	3.3408	58.4652	-120.458	-38.6174	57.3276	-124.92	-5.37869	66.5903	-150.035	-2.9197	78.4195	-175.847	-60.8231	73.2088	-195.193	-56.187	100.82	-206.022	-41.9181	65.7761	
209	1.74167	-202.667	2.55288	59.9429	-173.519	12.4582	38.4706	-138.616	3.06312	18.7092	-116.528	-2.5478	12.3239	-174.313	-40.7987	-1.83491	-158.031	-39.4168	-27.7469	-138.949	-40.2599	-49.7438	-145.659	-57.552	12.0752	-118.816	-54.004	-9.97586	-94.2522	-47.1339	-29.5507	-128.352	-42.2804	29.8416	-115.006	-11.3903	30.4404	-140.176	5.80988	54.8929	-120.264	-34.5573	56.1757	-125.084	-1.88945	64.6759	-156.566	-2.91625	77.8158	-174.457	-60.7487	72.0387	-193.954	-53.8984	95.5224	-208.309	-42.1509	67.1396	
210	1.75	-205.435	0.44458	56.8945	-176.897	11.8494	35.9581	-145.391	3.75052	18.1732	-120.773	-1.57788	6.56253	-180.725	-40.2731	-7.79034	-167.124	-38.9434	-33.2213	-149.486	-40.8322	-51.5538	-149.747	-56.1784	7.11838	-128.756	-52.2973	-12.4825	-97.7875	-47.2008	-33.7798	-128.888	-38.5465	28.6288	-121.649	-9.07136	27.9337	-145.628	5.43343	52.1838	-121.822	-33.5415	52.7721	-129.377	0.858631	60.4192	-159.209	-0.891659	73.7815	-178.071	-59.4065	71.891	-193.471	-51.2661	102.313	-208.972	-41.3702	63.6461	
